<svg xmlns="http://www.w3.org/2000/svg" viewBox="0 0 256 256" width="256" height="256">
  <defs>
    <linearGradient id="bodyGrad" x1="0%" y1="0%" x2="100%" y2="100%">
      <stop offset="0%" style="stop-color:#A855F7"/>
      <stop offset="100%" style="stop-color:#F472B6"/>
    </linearGradient>
  </defs>
  <!-- Body -->
  <path d="M128 20 C70 20 30 70 30 120 C30 170 40 200 50 220 Q60 240 70 235 Q80 230 85 240 Q95 255 105 240 Q115 225 128 240 Q141 225 151 240 Q161 255 171 240 Q176 230 186 235 Q196 240 206 220 C216 200 226 170 226 120 C226 70 186 20 128 20Z" fill="url(#bodyGrad)" opacity="0.95"/>
  <!-- Face white area -->
  <ellipse cx="128" cy="110" rx="55" ry="45" fill="white" opacity="0.15"/>
  <!-- Spooky wide eyes -->
  <ellipse cx="105" cy="102" rx="15" ry="17" fill="#1a1a24"/>
  <ellipse cx="151" cy="102" rx="15" ry="17" fill="#1a1a24"/>
  <!-- Tiny pupils (creepy) -->
  <circle cx="105" cy="102" r="4" fill="white"/>
  <circle cx="151" cy="102" r="4" fill="white"/>
  <!-- Creepy wide smile -->
  <path d="M98 138 Q108 155 128 155 Q148 155 158 138" stroke="#1a1a24" stroke-width="3" fill="none" stroke-linecap="round"/>
  <!-- Teeth hints -->
  <line x1="118" y1="147" x2="118" y2="152" stroke="#1a1a24" stroke-width="2"/>
  <line x1="128" y1="149" x2="128" y2="155" stroke="#1a1a24" stroke-width="2"/>
  <line x1="138" y1="147" x2="138" y2="152" stroke="#1a1a24" stroke-width="2"/>
  <!-- Blush -->
  <ellipse cx="82" cy="125" rx="12" ry="7" fill="#F472B6" opacity="0.35"/>
  <ellipse cx="174" cy="125" rx="12" ry="7" fill="#F472B6" opacity="0.35"/>
  <!-- Floating particles -->
  <circle cx="45" cy="90" r="3" fill="#A855F7" opacity="0.3"/>
  <circle cx="210" cy="80" r="2" fill="#F472B6" opacity="0.3"/>
  <circle cx="55" cy="60" r="2" fill="#A855F7" opacity="0.2"/>
  <circle cx="200" cy="55" r="3" fill="#F472B6" opacity="0.2"/>
</svg>
