<svg xmlns="http://www.w3.org/2000/svg" viewBox="0 0 256 256" width="256" height="256">
  <defs>
    <linearGradient id="bodyGrad" x1="0%" y1="0%" x2="100%" y2="100%">
      <stop offset="0%" style="stop-color:#A855F7"/>
      <stop offset="100%" style="stop-color:#F472B6"/>
    </linearGradient>
  </defs>
  <!-- Body -->
  <path d="M128 20 C70 20 30 70 30 120 C30 170 40 200 50 220 Q60 240 70 235 Q80 230 85 240 Q95 255 105 240 Q115 225 128 240 Q141 225 151 240 Q161 255 171 240 Q176 230 186 235 Q196 240 206 220 C216 200 226 170 226 120 C226 70 186 20 128 20Z" fill="url(#bodyGrad)" opacity="0.95"/>
  <!-- Face white area -->
  <ellipse cx="128" cy="110" rx="55" ry="45" fill="white" opacity="0.15"/>
  <!-- Happy eyes (closed arcs) -->
  <path d="M93 105 Q105 90 117 105" stroke="#1a1a24" stroke-width="4" fill="none" stroke-linecap="round"/>
  <path d="M139 105 Q151 90 163 105" stroke="#1a1a24" stroke-width="4" fill="none" stroke-linecap="round"/>
  <!-- Sparkles -->
  <path d="M75 80 L78 72 L81 80 L89 83 L81 86 L78 94 L75 86 L67 83Z" fill="#FBBF24" opacity="0.9"/>
  <path d="M175 75 L177 69 L179 75 L185 77 L179 79 L177 85 L175 79 L169 77Z" fill="#FBBF24" opacity="0.9"/>
  <!-- Big smile -->
  <path d="M108 135 Q128 158 148 135" stroke="#1a1a24" stroke-width="3" fill="none" stroke-linecap="round"/>
  <!-- Blush -->
  <ellipse cx="85" cy="125" rx="12" ry="7" fill="#F472B6" opacity="0.5"/>
  <ellipse cx="171" cy="125" rx="12" ry="7" fill="#F472B6" opacity="0.5"/>
</svg>
