<svg xmlns="http://www.w3.org/2000/svg" viewBox="0 0 256 256" width="256" height="256">
  <defs>
    <linearGradient id="bodyGrad" x1="0%" y1="0%" x2="100%" y2="100%">
      <stop offset="0%" style="stop-color:#A855F7"/>
      <stop offset="100%" style="stop-color:#F472B6"/>
    </linearGradient>
  </defs>
  <!-- Body -->
  <path d="M128 20 C70 20 30 70 30 120 C30 170 40 200 50 220 Q60 240 70 235 Q80 230 85 240 Q95 255 105 240 Q115 225 128 240 Q141 225 151 240 Q161 255 171 240 Q176 230 186 235 Q196 240 206 220 C216 200 226 170 226 120 C226 70 186 20 128 20Z" fill="url(#bodyGrad)" opacity="0.95"/>
  <!-- Face white area -->
  <ellipse cx="128" cy="110" rx="55" ry="45" fill="white" opacity="0.15"/>
  <!-- Eyes -->
  <ellipse cx="105" cy="105" rx="12" ry="14" fill="#1a1a24"/>
  <ellipse cx="151" cy="105" rx="12" ry="14" fill="#1a1a24"/>
  <!-- Eye highlights -->
  <circle cx="100" cy="100" r="4" fill="white" opacity="0.8"/>
  <circle cx="146" cy="100" r="4" fill="white" opacity="0.8"/>
  <!-- Mouth -->
  <ellipse cx="128" cy="140" rx="8" ry="5" fill="#1a1a24"/>
  <!-- Blush -->
  <ellipse cx="85" cy="125" rx="12" ry="7" fill="#F472B6" opacity="0.4"/>
  <ellipse cx="171" cy="125" rx="12" ry="7" fill="#F472B6" opacity="0.4"/>
</svg>
